<svg xmlns="http://www.w3.org/2000/svg" width="32" height="32" viewBox="0 0 32 32" fill="none">
  <rect width="32" height="32" rx="8" fill="url(#gradient)"/>
  <defs>
    <linearGradient id="gradient" x1="0%" y1="0%" x2="100%" y2="100%">
      <stop offset="0%" style="stop-color:#3b82f6;stop-opacity:1" />
      <stop offset="100%" style="stop-color:#1d4ed8;stop-opacity:1" />
    </linearGradient>
  </defs>
  <!-- "B" for Blink -->
  <path d="M9 8h6c2.2 0 4 1.8 4 4 0 1.1-.4 2.1-1.2 2.8.8.7 1.2 1.7 1.2 2.8 0 2.2-1.8 4-4 4H9V8zm3 2v4h3c.6 0 1-.4 1-1s-.4-1-1-1h-3zm0 6v4h3c.6 0 1-.4 1-1s-.4-1-1-1h-3z" fill="white"/>
  <!-- Market chart lines -->
  <path d="M20 12l2-2 2 3 2-1" stroke="white" stroke-width="1.5" fill="none" stroke-linecap="round" stroke-linejoin="round"/>
  <circle cx="20" cy="12" r="1" fill="white"/>
  <circle cx="22" cy="10" r="1" fill="white"/>
  <circle cx="24" cy="13" r="1" fill="white"/>
  <circle cx="26" cy="12" r="1" fill="white"/>
</svg>